<svg xmlns="http://www.w3.org/2000/svg" viewBox="0 0 1240 980" width="100%" role="img" aria-labelledby="riss-t riss-d"><title id="riss-t">Räumlicher Riss — Fünf Tore des Rambam-Referenzbergs</title><desc id="riss-d">Räumliche Darstellung ausschließlich nach den Maßangaben der Baukarte. Fehlende Höhen bleiben offen.</desc><defs><pattern id="rHatch" width="7" height="7" patternUnits="userSpaceOnUse" patternTransform="rotate(45)"><line x1="0" y1="0" x2="0" y2="7" stroke="#C96B62" stroke-width="1.5" opacity=".6"/></pattern><pattern id="rHatchQ" width="8" height="8" patternUnits="userSpaceOnUse" patternTransform="rotate(45)"><line x1="0" y1="0" x2="0" y2="8" stroke="#6E9EAA" stroke-width="1.2" opacity=".55"/></pattern><linearGradient id="rWall" x1="0" y1="0" x2="0" y2="1"><stop offset="0" stop-color="#D7BD87"/><stop offset="1" stop-color="#8F653D"/></linearGradient></defs><rect x="0.0" y="0.0" width="1240.0" height="980.0" fill="#070909"/><text x="46.0" y="44.0" fill="#D7BD87" font-family="EB Garamond, Georgia, serif" font-size="12">Baukarte 07 · Räumlicher Riss</text><line x1="46.0" y1="54.0" x2="1194.0" y2="54.0" stroke="#B8925D" stroke-width="1"/><text x="46.0" y="88.0" fill="#F2EAD9" font-family="Frank Ruhl Libre, Noto Serif Hebrew, serif" font-size="25">חֲמִשָּׁה שְׁעָרִים לְהַר הַבַּיִת</text><text x="46.0" y="112.0" fill="#D7BD87" font-family="Cormorant Garamond, Georgia, serif" font-size="15" font-style="italic">Fünf Tore des Rambam-Referenzbergs</text><text x="1194.0" y="82.0" fill="#A89F8E" font-family="EB Garamond, Georgia, serif" font-size="11" text-anchor="end">Axonometrie · Ammot · fünf getrennte Öffnungsebenen · keine Perspektive</text><text x="1194.0" y="100.0" fill="#6F746D" font-family="EB Garamond, Georgia, serif" font-size="11" text-anchor="end">Gezeichnet wird nur, was die Karte belegt</text><polyline points="416.4,444.2 330.8,509.9 330.8,373.0" fill="none" stroke="#C96B62" stroke-width="1.2" stroke-dasharray="6 6"/><text x="330.8" y="525.9" fill="#D7A09A" font-family="EB Garamond, Georgia, serif" font-size="10" text-anchor="middle">Torposition offen</text><polyline points="576.2,506.7 490.6,572.4 490.6,435.5" fill="none" stroke="#C96B62" stroke-width="1.2" stroke-dasharray="6 6"/><text x="490.6" y="588.4" fill="#D7A09A" font-family="EB Garamond, Georgia, serif" font-size="10" text-anchor="middle">Torposition offen</text><polyline points="736.0,569.3 650.5,634.9 650.5,498.1" fill="none" stroke="#C96B62" stroke-width="1.2" stroke-dasharray="6 6"/><text x="650.5" y="650.9" fill="#D7A09A" font-family="EB Garamond, Georgia, serif" font-size="10" text-anchor="middle">Torposition offen</text><polyline points="895.9,631.8 810.3,697.5 810.3,560.6" fill="none" stroke="#C96B62" stroke-width="1.2" stroke-dasharray="6 6"/><text x="810.3" y="713.5" fill="#D7A09A" font-family="EB Garamond, Georgia, serif" font-size="10" text-anchor="middle">Torposition offen</text><polygon points="250.9,401.5 384.1,453.6 336.5,490.1 203.3,438.0" fill="#101515" fill-opacity="1" stroke="#B8925D" stroke-width="1" stroke-opacity=".85"/><polygon points="336.5,492.8 203.3,440.7 203.3,438.0 336.5,490.1" fill="#0B0E0E" fill-opacity="1" stroke="#B8925D" stroke-width="1" stroke-opacity=".85"/><polygon points="384.1,456.3 336.5,492.8 336.5,490.1 384.1,453.6" fill="#0B0E0E" fill-opacity="1" stroke="#B8925D" stroke-width="1" stroke-opacity=".85"/><polygon points="329.4,457.0 262.8,430.9 262.8,294.0 329.4,320.1" fill="#D7BD87" fill-opacity="1" stroke="#F2EAD9" stroke-width="1" stroke-opacity=".85"/><polygon points="331.7,455.2 329.4,457.0 329.4,320.1 331.7,318.3" fill="#D7BD87" fill-opacity="1" stroke="#F2EAD9" stroke-width="1" stroke-opacity=".85"/><polygon points="265.2,292.2 331.7,318.3 329.4,320.1 262.8,294.0" fill="#F2EAD9" fill-opacity="1" stroke="#F2EAD9" stroke-width="1" stroke-opacity=".85"/><polygon points="410.7,464.0 543.9,516.1 496.3,552.6 363.2,500.5" fill="#101515" fill-opacity="1" stroke="#B8925D" stroke-width="1" stroke-opacity=".85"/><polygon points="496.3,555.3 363.2,503.2 363.2,500.5 496.3,552.6" fill="#0B0E0E" fill-opacity="1" stroke="#B8925D" stroke-width="1" stroke-opacity=".85"/><polygon points="543.9,518.9 496.3,555.3 496.3,552.6 543.9,516.1" fill="#0B0E0E" fill-opacity="1" stroke="#B8925D" stroke-width="1" stroke-opacity=".85"/><polygon points="489.2,519.5 422.6,493.5 422.6,356.6 489.2,382.6" fill="#D7BD87" fill-opacity="1" stroke="#F2EAD9" stroke-width="1" stroke-opacity=".85"/><polygon points="491.6,517.7 489.2,519.5 489.2,382.6 491.6,380.8" fill="#D7BD87" fill-opacity="1" stroke="#F2EAD9" stroke-width="1" stroke-opacity=".85"/><polygon points="425.0,354.8 491.6,380.8 489.2,382.6 422.6,356.6" fill="#F2EAD9" fill-opacity="1" stroke="#F2EAD9" stroke-width="1" stroke-opacity=".85"/><polygon points="570.5,526.5 703.7,578.6 656.2,615.1 523.0,563.0" fill="#101515" fill-opacity="1" stroke="#B8925D" stroke-width="1" stroke-opacity=".85"/><polygon points="656.2,617.9 523.0,565.8 523.0,563.0 656.2,615.1" fill="#0B0E0E" fill-opacity="1" stroke="#B8925D" stroke-width="1" stroke-opacity=".85"/><polygon points="703.7,581.4 656.2,617.9 656.2,615.1 703.7,578.6" fill="#0B0E0E" fill-opacity="1" stroke="#B8925D" stroke-width="1" stroke-opacity=".85"/><polygon points="649.0,582.0 582.4,556.0 582.4,419.1 649.0,445.2" fill="#C96B62" fill-opacity="0.13" stroke="#C96B62" stroke-width="1" stroke-dasharray="6 5" stroke-opacity=".85"/><polygon points="651.4,580.2 649.0,582.0 649.0,445.2 651.4,443.3" fill="#C96B62" fill-opacity="0.13" stroke="#C96B62" stroke-width="1" stroke-dasharray="6 5" stroke-opacity=".85"/><polygon points="584.8,417.3 651.4,443.3 649.0,445.2 582.4,419.1" fill="#C96B62" fill-opacity="0.13" stroke="#C96B62" stroke-width="1" stroke-dasharray="5 4" stroke-opacity=".85"/><polygon points="730.3,589.1 863.5,641.2 816.0,677.7 682.8,625.6" fill="#101515" fill-opacity="1" stroke="#B8925D" stroke-width="1" stroke-opacity=".85"/><polygon points="816.0,680.4 682.8,628.3 682.8,625.6 816.0,677.7" fill="#0B0E0E" fill-opacity="1" stroke="#B8925D" stroke-width="1" stroke-opacity=".85"/><polygon points="863.5,643.9 816.0,680.4 816.0,677.7 863.5,641.2" fill="#0B0E0E" fill-opacity="1" stroke="#B8925D" stroke-width="1" stroke-opacity=".85"/><polygon points="808.8,644.6 742.2,618.5 742.2,481.6 808.8,507.7" fill="#D7BD87" fill-opacity="1" stroke="#F2EAD9" stroke-width="1" stroke-opacity=".85"/><polygon points="811.2,642.7 808.8,644.6 808.8,507.7 811.2,505.9" fill="#D7BD87" fill-opacity="1" stroke="#F2EAD9" stroke-width="1" stroke-opacity=".85"/><polygon points="744.6,479.8 811.2,505.9 808.8,507.7 742.2,481.6" fill="#F2EAD9" fill-opacity="1" stroke="#F2EAD9" stroke-width="1" stroke-opacity=".85"/><polygon points="890.2,651.6 1023.3,703.7 975.8,740.2 842.6,688.1" fill="#101515" fill-opacity="1" stroke="#B8925D" stroke-width="1" stroke-opacity=".85"/><polygon points="975.8,742.9 842.6,690.8 842.6,688.1 975.8,740.2" fill="#0B0E0E" fill-opacity="1" stroke="#B8925D" stroke-width="1" stroke-opacity=".85"/><polygon points="1023.3,706.4 975.8,742.9 975.8,740.2 1023.3,703.7" fill="#0B0E0E" fill-opacity="1" stroke="#B8925D" stroke-width="1" stroke-opacity=".85"/><polygon points="968.7,707.1 902.1,681.0 902.1,544.2 968.7,570.2" fill="#D7BD87" fill-opacity="1" stroke="#F2EAD9" stroke-width="1" stroke-opacity=".85"/><polygon points="971.0,705.3 968.7,707.1 968.7,570.2 971.0,568.4" fill="#D7BD87" fill-opacity="1" stroke="#F2EAD9" stroke-width="1" stroke-opacity=".85"/><polygon points="904.4,542.3 971.0,568.4 968.7,570.2 902.1,544.2" fill="#F2EAD9" fill-opacity="1" stroke="#F2EAD9" stroke-width="1" stroke-opacity=".85"/><text x="297.3" y="297.9" fill="#F2EAD9" font-family="EB Garamond, Georgia, serif" font-size="11" text-anchor="middle">West 1 · lichte Öffnung 10 × 20</text><text x="457.1" y="360.5" fill="#F2EAD9" font-family="EB Garamond, Georgia, serif" font-size="11" text-anchor="middle">Ost 1 · lichte Öffnung 10 × 20</text><text x="616.9" y="423.0" fill="#D7A09A" font-family="EB Garamond, Georgia, serif" font-size="11" text-anchor="middle">Nord 1 · Tadi · lichte Öffnung 10 × 20</text><text x="776.7" y="485.5" fill="#F2EAD9" font-family="EB Garamond, Georgia, serif" font-size="11" text-anchor="middle">Süd 1 · lichte Öffnung 10 × 20</text><text x="936.5" y="548.1" fill="#F2EAD9" font-family="EB Garamond, Georgia, serif" font-size="11" text-anchor="middle">Süd 2 · lichte Öffnung 10 × 20</text><text x="46.0" y="790.0" fill="#A89F8E" font-family="EB Garamond, Georgia, serif" font-size="11">· Fünf isolierte Öffnungsebenen bewahren die Verteilung W1 · O1 · N1 · S2.</text><text x="46.0" y="807.0" fill="#A89F8E" font-family="EB Garamond, Georgia, serif" font-size="11">· Ihre Abstände sind keine Bergtor-Positionen; diese bleiben entlang der Seiten offen.</text><text x="46.0" y="824.0" fill="#A89F8E" font-family="EB Garamond, Georgia, serif" font-size="11">· Das Nord-/Tadi-Modul bleibt wegen der besonderen Sturzform gestrichelt.</text><text x="46.0" y="760.0" fill="#D7BD87" font-family="EB Garamond, Georgia, serif" font-size="11">Ohne Maßstab — Ammot · fünf getrennte Öffnungsebenen</text><line x1="46.0" y1="846.0" x2="1194.0" y2="846.0" stroke="#B8925D" stroke-width="1" stroke-dasharray="2 6"/><rect x="46.0" y="854.0" width="16.0" height="9.0" fill="#D7BD87" opacity=".85"/><text x="70.0" y="862.0" fill="#A89F8E" font-family="EB Garamond, Georgia, serif" font-size="11">voller Körper — Maß in der Karte belegt</text><rect x="46.0" y="872.0" width="16.0" height="9.0" fill="#B8925D" opacity=".85"/><text x="70.0" y="880.0" fill="#A89F8E" font-family="EB Garamond, Georgia, serif" font-size="11">Andeutung — Grundriss belegt, Höhe nicht überliefert</text><rect x="46.0" y="890.0" width="16.0" height="9.0" fill="#C96B62" opacity=".85"/><text x="70.0" y="898.0" fill="#A89F8E" font-family="EB Garamond, Georgia, serif" font-size="11">gestrichelt — in der Karte ausdrücklich offen</text><text x="645.0" y="860.0" fill="#D7A09A" font-family="EB Garamond, Georgia, serif" font-size="10" letter-spacing="2">NICHT GEZEICHNET</text><text x="645.0" y="878.0" fill="#A89F8E" font-family="EB Garamond, Georgia, serif" font-size="11">· Positionen entlang der Seiten</text><text x="645.0" y="894.0" fill="#A89F8E" font-family="EB Garamond, Georgia, serif" font-size="11">· Mauerstärke</text><text x="645.0" y="910.0" fill="#A89F8E" font-family="EB Garamond, Georgia, serif" font-size="11">· Durchgangstiefe</text><text x="645.0" y="926.0" fill="#A89F8E" font-family="EB Garamond, Georgia, serif" font-size="11">· Türflügel- und Tadi-Maße</text><text x="620.0" y="958.0" fill="#6F746D" font-family="EB Garamond, Georgia, serif" font-size="10" text-anchor="middle">Fünf Bergtore · Öffnungsmaße aufgestellt · Lage und Baukörper offen</text></svg>