<svg xmlns="http://www.w3.org/2000/svg" viewBox="0 0 1240 980" width="100%" role="img" aria-labelledby="riss-t riss-d"><title id="riss-t">Räumlicher Riss — Die Kammerblöcke im Norden und Süden — 100 auf 50</title><desc id="riss-d">Räumliche Darstellung ausschließlich nach den Maßangaben der Baukarte. Fehlende Höhen bleiben offen.</desc><defs><pattern id="rHatch" width="7" height="7" patternUnits="userSpaceOnUse" patternTransform="rotate(45)"><line x1="0" y1="0" x2="0" y2="7" stroke="#C96B62" stroke-width="1.5" opacity=".6"/></pattern><pattern id="rHatchQ" width="8" height="8" patternUnits="userSpaceOnUse" patternTransform="rotate(45)"><line x1="0" y1="0" x2="0" y2="8" stroke="#6E9EAA" stroke-width="1.2" opacity=".55"/></pattern><linearGradient id="rWall" x1="0" y1="0" x2="0" y2="1"><stop offset="0" stop-color="#D7BD87"/><stop offset="1" stop-color="#8F653D"/></linearGradient></defs><rect x="0.0" y="0.0" width="1240.0" height="980.0" fill="#070909"/><text x="46.0" y="44.0" fill="#D7BD87" font-family="EB Garamond, Georgia, serif" font-size="12">Baukarte 21 · Räumlicher Riss</text><line x1="46.0" y1="54.0" x2="1194.0" y2="54.0" stroke="#B8925D" stroke-width="1"/><text x="46.0" y="88.0" fill="#F2EAD9" font-family="Frank Ruhl Libre, Noto Serif Hebrew, serif" font-size="25">לְשָׁכוֹת הַצָּפוֹן וְהַדָּרוֹם — 100 × 50</text><text x="46.0" y="112.0" fill="#D7BD87" font-family="Cormorant Garamond, Georgia, serif" font-size="15" font-style="italic">Die Kammerblöcke im Norden und Süden — 100 auf 50</text><text x="1194.0" y="82.0" fill="#A89F8E" font-family="EB Garamond, Georgia, serif" font-size="11" text-anchor="end">Axonometrie · Maßstab in Ammot · Geschosshöhen symbolisch · keine Perspektive</text><text x="1194.0" y="100.0" fill="#6F746D" font-family="EB Garamond, Georgia, serif" font-size="11" text-anchor="end">Gezeichnet wird nur, was die Karte belegt</text><line x1="598.6" y1="298.3" x2="214.6" y2="593.0" stroke="#B8925D" stroke-width=".5" opacity=".22"/><line x1="641.2" y1="315.0" x2="257.3" y2="609.7" stroke="#B8925D" stroke-width=".5" opacity=".22"/><line x1="683.9" y1="331.7" x2="300.0" y2="626.4" stroke="#B8925D" stroke-width=".5" opacity=".22"/><line x1="726.6" y1="348.4" x2="342.6" y2="643.1" stroke="#B8925D" stroke-width=".5" opacity=".22"/><line x1="769.3" y1="365.1" x2="385.3" y2="659.8" stroke="#B8925D" stroke-width=".5" opacity=".22"/><line x1="812.0" y1="381.8" x2="428.0" y2="676.5" stroke="#B8925D" stroke-width=".5" opacity=".22"/><line x1="854.7" y1="398.5" x2="470.7" y2="693.2" stroke="#B8925D" stroke-width=".5" opacity=".22"/><line x1="897.4" y1="415.2" x2="513.4" y2="709.9" stroke="#B8925D" stroke-width=".5" opacity=".22"/><line x1="940.0" y1="431.9" x2="556.1" y2="726.6" stroke="#B8925D" stroke-width=".5" opacity=".22"/><line x1="982.7" y1="448.6" x2="598.8" y2="743.3" stroke="#B8925D" stroke-width=".5" opacity=".22"/><line x1="1025.4" y1="465.3" x2="641.4" y2="760.0" stroke="#B8925D" stroke-width=".5" opacity=".22"/><line x1="598.6" y1="298.3" x2="1025.4" y2="465.3" stroke="#B8925D" stroke-width=".5" opacity=".22"/><line x1="568.1" y1="321.6" x2="994.9" y2="488.6" stroke="#B8925D" stroke-width=".5" opacity=".22"/><line x1="537.6" y1="345.0" x2="964.5" y2="512.0" stroke="#B8925D" stroke-width=".5" opacity=".22"/><line x1="507.1" y1="368.4" x2="934.0" y2="535.4" stroke="#B8925D" stroke-width=".5" opacity=".22"/><line x1="476.7" y1="391.8" x2="903.5" y2="558.8" stroke="#B8925D" stroke-width=".5" opacity=".22"/><line x1="446.2" y1="415.2" x2="873.0" y2="582.2" stroke="#B8925D" stroke-width=".5" opacity=".22"/><line x1="415.7" y1="438.6" x2="842.6" y2="605.6" stroke="#B8925D" stroke-width=".5" opacity=".22"/><line x1="385.2" y1="462.0" x2="812.1" y2="629.0" stroke="#B8925D" stroke-width=".5" opacity=".22"/><line x1="354.8" y1="485.4" x2="781.6" y2="652.4" stroke="#B8925D" stroke-width=".5" opacity=".22"/><line x1="324.3" y1="508.8" x2="751.1" y2="675.8" stroke="#B8925D" stroke-width=".5" opacity=".22"/><line x1="293.8" y1="532.2" x2="720.7" y2="699.2" stroke="#B8925D" stroke-width=".5" opacity=".22"/><line x1="263.4" y1="555.6" x2="690.2" y2="722.6" stroke="#B8925D" stroke-width=".5" opacity=".22"/><line x1="232.9" y1="579.0" x2="659.7" y2="746.0" stroke="#B8925D" stroke-width=".5" opacity=".22"/><polygon points="598.6,285.1 1025.4,452.1 873.0,569.1 446.2,402.1" fill="#C96B62" fill-opacity="0.13" stroke="#C96B62" stroke-width="1" stroke-dasharray="5 4" stroke-opacity=".85"/><polygon points="598.6,267.5 1025.4,434.5 873.0,551.5 446.2,384.5" fill="#C96B62" fill-opacity="0.13" stroke="#C96B62" stroke-width="1" stroke-dasharray="5 4" stroke-opacity=".85"/><polygon points="598.6,250.0 1025.4,417.0 873.0,534.0 446.2,367.0" fill="#C96B62" fill-opacity="0.13" stroke="#C96B62" stroke-width="1" stroke-dasharray="5 4" stroke-opacity=".85"/><polygon points="873.0,582.2 446.2,415.2 446.2,402.1 873.0,569.1" fill="#C96B62" fill-opacity="0.13" stroke="#C96B62" stroke-width="1" stroke-dasharray="6 5" stroke-opacity=".85"/><polygon points="873.0,564.7 446.2,397.7 446.2,384.5 873.0,551.5" fill="#C96B62" fill-opacity="0.13" stroke="#C96B62" stroke-width="1" stroke-dasharray="6 5" stroke-opacity=".85"/><polygon points="873.0,547.1 446.2,380.1 446.2,367.0 873.0,534.0" fill="#C96B62" fill-opacity="0.13" stroke="#C96B62" stroke-width="1" stroke-dasharray="6 5" stroke-opacity=".85"/><polygon points="437.0,422.2 863.9,589.2 833.4,612.6 406.6,445.6" fill="#6E9EAA" fill-opacity="0.34" stroke="#9EC2C7" stroke-width="1" stroke-dasharray="5 4" stroke-opacity=".85"/><polygon points="1025.4,465.3 873.0,582.2 873.0,569.1 1025.4,452.1" fill="#C96B62" fill-opacity="0.13" stroke="#C96B62" stroke-width="1" stroke-dasharray="6 5" stroke-opacity=".85"/><polygon points="833.4,614.4 406.6,447.4 406.6,445.6 833.4,612.6" fill="#6E9EAA" fill-opacity="0.34" stroke="#9EC2C7" stroke-width="1" stroke-dasharray="5 4" stroke-opacity=".85"/><polygon points="1025.4,447.7 873.0,564.7 873.0,551.5 1025.4,434.5" fill="#C96B62" fill-opacity="0.13" stroke="#C96B62" stroke-width="1" stroke-dasharray="6 5" stroke-opacity=".85"/><polygon points="406.6,445.6 833.4,612.6 803.0,636.0 376.1,469.0" fill="#6E9EAA" fill-opacity="0.34" stroke="#9EC2C7" stroke-width="1" stroke-dasharray="5 4" stroke-opacity=".85"/><polygon points="1025.4,430.2 873.0,547.1 873.0,534.0 1025.4,417.0" fill="#C96B62" fill-opacity="0.13" stroke="#C96B62" stroke-width="1" stroke-dasharray="6 5" stroke-opacity=".85"/><polygon points="803.0,637.8 376.1,470.8 376.1,469.0 803.0,636.0" fill="#6E9EAA" fill-opacity="0.34" stroke="#9EC2C7" stroke-width="1" stroke-dasharray="5 4" stroke-opacity=".85"/><polygon points="863.9,591.0 833.4,614.4 833.4,612.6 863.9,589.2" fill="#6E9EAA" fill-opacity="0.34" stroke="#9EC2C7" stroke-width="1" stroke-dasharray="5 4" stroke-opacity=".85"/><polygon points="367.0,462.9 793.8,629.9 641.4,746.8 214.6,579.8" fill="#C96B62" fill-opacity="0.13" stroke="#C96B62" stroke-width="1" stroke-dasharray="5 4" stroke-opacity=".85"/><polygon points="833.4,614.4 803.0,637.8 803.0,636.0 833.4,612.6" fill="#6E9EAA" fill-opacity="0.34" stroke="#9EC2C7" stroke-width="1" stroke-dasharray="5 4" stroke-opacity=".85"/><polygon points="367.0,445.3 793.8,612.3 641.4,729.3 214.6,562.3" fill="#C96B62" fill-opacity="0.13" stroke="#C96B62" stroke-width="1" stroke-dasharray="5 4" stroke-opacity=".85"/><polygon points="367.0,427.8 793.8,594.8 641.4,711.7 214.6,544.7" fill="#C96B62" fill-opacity="0.13" stroke="#C96B62" stroke-width="1" stroke-dasharray="5 4" stroke-opacity=".85"/><polygon points="641.4,760.0 214.6,593.0 214.6,579.8 641.4,746.8" fill="#C96B62" fill-opacity="0.13" stroke="#C96B62" stroke-width="1" stroke-dasharray="6 5" stroke-opacity=".85"/><polygon points="641.4,742.5 214.6,575.5 214.6,562.3 641.4,729.3" fill="#C96B62" fill-opacity="0.13" stroke="#C96B62" stroke-width="1" stroke-dasharray="6 5" stroke-opacity=".85"/><polygon points="641.4,724.9 214.6,557.9 214.6,544.7 641.4,711.7" fill="#C96B62" fill-opacity="0.13" stroke="#C96B62" stroke-width="1" stroke-dasharray="6 5" stroke-opacity=".85"/><polygon points="793.8,643.0 641.4,760.0 641.4,746.8 793.8,629.9" fill="#C96B62" fill-opacity="0.13" stroke="#C96B62" stroke-width="1" stroke-dasharray="6 5" stroke-opacity=".85"/><polygon points="793.8,625.5 641.4,742.5 641.4,729.3 793.8,612.3" fill="#C96B62" fill-opacity="0.13" stroke="#C96B62" stroke-width="1" stroke-dasharray="6 5" stroke-opacity=".85"/><polygon points="793.8,607.9 641.4,724.9 641.4,711.7 793.8,594.8" fill="#C96B62" fill-opacity="0.13" stroke="#C96B62" stroke-width="1" stroke-dasharray="6 5" stroke-opacity=".85"/><text x="735.8" y="387.6" fill="#D7A09A" font-family="EB Garamond, Georgia, serif" font-size="11" text-anchor="middle">Nordblock · 100 × 50 · drei Geschosse</text><text x="504.2" y="565.4" fill="#D7A09A" font-family="EB Garamond, Georgia, serif" font-size="11" text-anchor="middle">Südblock · gespiegelt</text><text x="635.2" y="513.0" fill="#F2EAD9" font-family="EB Garamond, Georgia, serif" font-size="11" text-anchor="middle">Gang 10 Amot</text><text x="604.8" y="536.4" fill="#F2EAD9" font-family="EB Garamond, Georgia, serif" font-size="11" text-anchor="middle">gespiegelter Bezug</text><text x="873.4" y="334.6" fill="#D7BD87" font-family="Cormorant Garamond, Georgia, serif" font-size="11" text-anchor="middle">NORD</text><text x="884.6" y="632.7" fill="#D7BD87" font-family="Cormorant Garamond, Georgia, serif" font-size="11" text-anchor="middle">OST</text><text x="46.0" y="790.0" fill="#A89F8E" font-family="EB Garamond, Georgia, serif" font-size="11">· Nord- und Südblock tragen dieselben 100 × 50-Ammot-Grundmaße.</text><text x="46.0" y="807.0" fill="#A89F8E" font-family="EB Garamond, Georgia, serif" font-size="11">· Drei Geschosse sind belegt; die gezeichneten gleichen Höhenabstände sind nur ein Zählschema.</text><text x="46.0" y="824.0" fill="#A89F8E" font-family="EB Garamond, Georgia, serif" font-size="11">· Innenstruktur, Rücksprünge und Wandstärken bleiben offen.</text><line x1="46" y1="756" x2="91.83548250314297" y2="756" stroke="#D7BD87" stroke-width="3"/><text x="101.8" y="760.0" fill="#D7BD87" font-family="EB Garamond, Georgia, serif" font-size="11">10 Ammot · Geschosshöhen symbolisch (in der Bodenebene)</text><line x1="46.0" y1="846.0" x2="1194.0" y2="846.0" stroke="#B8925D" stroke-width="1" stroke-dasharray="2 6"/><rect x="46.0" y="854.0" width="16.0" height="9.0" fill="#C96B62" opacity=".85"/><text x="70.0" y="862.0" fill="#A89F8E" font-family="EB Garamond, Georgia, serif" font-size="11">offene Volumen — Grundfläche und Anzahl belegt, Höhen offen</text><rect x="46.0" y="872.0" width="16.0" height="9.0" fill="#9EC2C7" opacity=".85"/><text x="70.0" y="880.0" fill="#A89F8E" font-family="EB Garamond, Georgia, serif" font-size="11">Gangstreifen — 10 Amot Breite</text><rect x="46.0" y="890.0" width="16.0" height="9.0" fill="#D7BD87" opacity=".85"/><text x="70.0" y="898.0" fill="#A89F8E" font-family="EB Garamond, Georgia, serif" font-size="11">Spiegelung — Südblock textlich gleich</text><text x="645.0" y="860.0" fill="#D7A09A" font-family="EB Garamond, Georgia, serif" font-size="10" letter-spacing="2">NICHT GEZEICHNET</text><text x="645.0" y="878.0" fill="#A89F8E" font-family="EB Garamond, Georgia, serif" font-size="11">· Geschosshöhen</text><text x="645.0" y="894.0" fill="#A89F8E" font-family="EB Garamond, Georgia, serif" font-size="11">· Innenstruktur und Rücksprünge</text><text x="645.0" y="910.0" fill="#A89F8E" font-family="EB Garamond, Georgia, serif" font-size="11">· Wandstärken</text><text x="645.0" y="926.0" fill="#A89F8E" font-family="EB Garamond, Georgia, serif" font-size="11">· sichere Form der Staffelung</text><text x="620.0" y="958.0" fill="#6F746D" font-family="EB Garamond, Georgia, serif" font-size="10" text-anchor="middle">Kammerblöcke · Grundflächen maßstäblich · Vertikale nur als Zählschema</text></svg>